<svg version="1.1" viewBox="0 0 48 48" xmlns="http://www.w3.org/2000/svg">
 <g fill="#fff" stroke="#000" stroke-linecap="round" stroke-linejoin="round">
  <path d="m9.9 4h29c4.2 7.6 2.7 14-0.68 20-7.3 8.2-6.5 14 0.68 18h-29c-5.3-7.4-5.6-13-0.15-18 5.3-4.5 7.9-13 0.15-20z"/>
  <g>
   <rect x="15" y="25" width="17" height=".083"/>
   <rect x="22" y="14" width="16" height=".39"/>
   <rect x="17" y="17" width="20" height=".27"/>
   <rect x="24" y="39" width="8.1" height=".22"/>
   <rect x="16" y="36" width="16" height=".094"/>
   <rect x="15" y="21" width="18" height=".31"/>
  </g>
 </g>
 <g transform="matrix(.45 0 0 .46 14 25)" stroke-width="2.2">
  <rect transform="rotate(135)" x="8.1" y="-32" width="6.9" height=".027" fill="#fff" stroke="#000" stroke-linecap="round" stroke-linejoin="round"/>
  <rect transform="rotate(45)" x="29" y="12" width="6.9" height=".027" fill="#fff" stroke="#000" stroke-linecap="round" stroke-linejoin="round" stroke-width="2.2"/>
 </g>
 <rect x="19" y="6.9" width="15" height=".8" fill="#fff" stroke="#000" stroke-linecap="round" stroke-linejoin="round"/>
 <rect x="11" y="28" width="20" height=".27" fill="#fff" stroke="#000" stroke-linecap="round" stroke-linejoin="round"/>
 <g transform="rotate(-47 32 -14)">
  <path d="m-9.8 13h7c0.11 0 0.2 0.3 0.2 0.68 0 0.38-0.091 0.68-0.2 0.68h-7c-0.11 0-4.7-0.32-4.7-0.7 0-0.38 4.5-0.66 4.7-0.66z" fill="#806600"/>
  <rect x="-9.6" y="13" width=".78" height=".62" ry=".14" fill="#2b2200"/>
 </g>
 <rect transform="matrix(.68 -.73 .73 .68 0 0)" x="-8" y="41" width="27" height="1.5" ry=".74" stroke="#1a1a1a" stroke-linecap="round" stroke-linejoin="round" stroke-opacity=".8"/>
</svg>
